<?xml version="1.0" encoding="UTF-8" standalone="no"?>
<svg
   xmlns:dc="http://purl.org/dc/elements/1.1/"
   xmlns:cc="http://creativecommons.org/ns#"
   xmlns:rdf="http://www.w3.org/1999/02/22-rdf-syntax-ns#"
   xmlns:svg="http://www.w3.org/2000/svg"
   xmlns="http://www.w3.org/2000/svg"
   id="svg28"
   version="1.1"
   height="250"
   width="520">
  <metadata
     id="metadata34">
    <rdf:RDF>
      <cc:Work
         rdf:about="">
        <dc:format>image/svg+xml</dc:format>
        <dc:type
           rdf:resource="http://purl.org/dc/dcmitype/StillImage" />
      </cc:Work>
    </rdf:RDF>
  </metadata>
  <defs
     id="defs32" />
  <g
     id="g5">
    <title
       id="title2">background</title>
    <path
       id="canvas_background"
       d="M -1,-1 H 519 V 241 H -1 Z"
       style="fill:none" />
  </g>
  <g
     id="g26">
    <title
       id="title7">Layer 1</title>
    <g
       id="logo-group"
       transform="matrix(1.3791,0,0,1.3791,-445.41,-405.58)">
      <path
         style="fill:#c64b20;stroke-width:0;stroke-miterlimit:2"
         id="path294472"
         d="m 373.12,417.13 v 30.912 h 20.049 v -2.0314 h -17.796 v -28.881 z"
         stroke-miterlimit="2" />
      <path
         style="fill:#c64b20;stroke-width:0;stroke-miterlimit:2"
         id="path294474"
         d="m 420.24,431.35 h -20.004 v 1.9872 h 20.004 z m 0,-14.22 h -20.004 v 2.0314 h 20.004 z m -20.004,28.881 v 2.0314 h 20.004 v -2.0314 z"
         stroke-miterlimit="2" />
      <path
         style="fill:#c64b20;stroke-width:0;stroke-miterlimit:2"
         id="path294476"
         d="m 457.65,424.64 c -1.4131,-2.3405 -3.3562,-4.151 -5.8291,-5.52 -2.473,-1.3248 -5.3434,-1.9872 -8.5229,-1.9872 h -12.232 v 2.0314 h 12.056 c 2.8262,0 5.3434,0.57408 7.5514,1.7222 2.1638,1.1482 3.8419,2.7379 5.0342,4.7251 1.1482,2.0314 1.7664,4.3718 1.7664,6.9773 0,2.6496 -0.61824,4.9459 -1.7664,6.9773 -1.1923,2.0314 -2.8704,3.6211 -5.0342,4.7693 -2.208,1.1482 -4.7251,1.6781 -7.5514,1.6781 h -9.8035 v -13.425 h -2.2522 v 15.456 h 12.232 c 3.1795,0 6.0499,-0.6624 8.5229,-1.9872 2.473,-1.3248 4.416,-3.1354 5.8291,-5.4758 1.369,-2.3405 2.0755,-4.9901 2.0755,-7.993 0,-2.9587 -0.70655,-5.6083 -2.0755,-7.9488 z"
         stroke-miterlimit="2" />
      <path
         style="fill:#c64b20;stroke-width:0;stroke-miterlimit:2"
         id="path294478"
         d="m 479.47,415.28 v 32.767 h 2.208 v -32.77 z"
         stroke-miterlimit="2" />
      <path
         style="fill:#c64b20;stroke-width:0;stroke-miterlimit:2"
         id="path294480"
         d="m 492.26,424.99 v 23.052 h 2.208 v -23.05 z m -0.17664,-6.0941 c 0.35328,0.35328 0.75072,0.48576 1.2806,0.48576 0.48576,0 0.92736,-0.17664 1.2806,-0.52992 0.35328,-0.35328 0.52992,-0.75072 0.52992,-1.2806 0,-0.48576 -0.17664,-0.8832 -0.52992,-1.2365 -0.35328,-0.35328 -0.79488,-0.52992 -1.2806,-0.52992 -0.52992,0 -0.92736,0.17664 -1.2806,0.52992 -0.35328,0.35328 -0.52992,0.79488 -0.52992,1.2806 0,0.52992 0.17664,0.92736 0.52992,1.2806 z"
         stroke-miterlimit="2" />
      <path
         style="fill:#c64b20;stroke-width:0;stroke-miterlimit:2"
         id="path294482"
         d="m 525.82,424.99 h -2.1197 v 5.2109 c -0.92735,-1.6781 -2.2522,-3.0029 -3.9302,-3.9744 -1.7222,-0.92736 -3.6211,-1.4131 -5.7408,-1.4131 -2.1638,0 -4.1069,0.48576 -5.8733,1.4131 -1.7664,0.97152 -3.1354,2.2963 -4.1069,3.9744 -1.0157,1.7222 -1.5014,3.6653 -1.5014,5.785 0,2.1638 0.48576,4.1069 1.5014,5.785 0.97152,1.7222 2.3405,3.047 4.1069,4.0186 1.7664,0.97152 3.7094,1.4131 5.8733,1.4131 2.0755,0 3.9744,-0.4416 5.6525,-1.369 1.6781,-0.8832 2.9587,-2.208 3.9302,-3.8861 v 3.8861 c 0,3.0912 -0.75072,5.3434 -2.208,6.8006 -1.5014,1.4573 -3.7536,2.1638 -6.8006,2.1638 -1.8547,0 -3.577,-0.26496 -5.1667,-0.8832 -1.6339,-0.57408 -3.0029,-1.4131 -4.151,-2.473 l -1.1923,1.6781 c 1.1482,1.1482 2.6496,2.0755 4.5485,2.6938 1.8547,0.6624 3.8861,0.97152 6.0058,0.97152 3.7094,0 6.5357,-0.8832 8.3904,-2.7379 1.8547,-1.8106 2.7821,-4.6368 2.7821,-8.4787 z m -6.7565,19.077 c -1.4573,0.79488 -3.0912,1.1482 -4.8576,1.1482 -1.8106,0 -3.4445,-0.35328 -4.8576,-1.1482 -1.4131,-0.79488 -2.5613,-1.8547 -3.3562,-3.2678 -0.79488,-1.4131 -1.1923,-3.0029 -1.1923,-4.8134 0,-1.7664 0.39744,-3.3562 1.1923,-4.7693 0.79488,-1.369 1.943,-2.4288 3.3562,-3.2237 1.4131,-0.79488 3.047,-1.1923 4.8576,-1.1923 1.7664,0 3.4003,0.39744 4.8576,1.1923 1.4131,0.79488 2.5613,1.8547 3.3562,3.2237 0.79489,1.4131 1.2365,3.0029 1.2365,4.7693 0,1.8106 -0.44161,3.4003 -1.2365,4.8134 -0.79487,1.4131 -1.943,2.473 -3.3562,3.2678 z"
         stroke-miterlimit="2" />
      <path
         style="fill:#c64b20;stroke-width:0;stroke-miterlimit:2"
         id="path294484"
         d="m 554.51,427.33 c -1.6781,-1.6781 -3.9744,-2.5171 -6.8448,-2.5171 -2.1197,0 -3.9744,0.4416 -5.52,1.3248 -1.5898,0.8832 -2.7379,2.0755 -3.5328,3.6653 v -14.52 h -2.208 v 32.767 h 2.208 v -12.276 c 0,-2.7379 0.75072,-4.9018 2.3405,-6.5357 1.5456,-1.5898 3.6653,-2.4288 6.4032,-2.4288 2.3405,0 4.151,0.70656 5.4758,2.0314 1.3248,1.369 1.9872,3.3562 1.9872,5.9174 v 13.292 h 2.208 v -13.469 c 0,-3.1354 -0.83903,-5.5642 -2.5171,-7.2422 z"
         stroke-miterlimit="2" />
      <path
         style="fill:#c64b20;stroke-width:0;stroke-miterlimit:2"
         id="path294486"
         d="m 578.84,446.59 -0.92736,-1.5456 c -0.97152,0.8832 -2.1638,1.2806 -3.577,1.2806 -1.4131,0 -2.5171,-0.35328 -3.2237,-1.1482 -0.70656,-0.79488 -1.0598,-1.943 -1.0598,-3.4445 v -14.838 h 7.3306 v -1.9 h -7.3306 v -5.0342 h -2.208 v 5.0342 h -4.2394 v 1.8989 h 4.2394 v 15.059 c 0,1.9872 0.52992,3.5328 1.6339,4.6368 1.0598,1.104 2.6054,1.6339 4.6368,1.6339 0.8832,0 1.7664,-0.13248 2.6054,-0.39744 0.83904,-0.26496 1.5456,-0.70656 2.1197,-1.2365 z"
         stroke-miterlimit="2" />
      <path
         style="fill:#c64b20;stroke-width:0;stroke-miterlimit:2"
         id="path294488"
         d="m 586.24,424.99 v 23.052 h 2.208 v -23.05 z m -0.17665,-6.0941 c 0.35329,0.35328 0.75072,0.48576 1.2806,0.48576 0.48576,0 0.92737,-0.17664 1.2806,-0.52992 0.35328,-0.35328 0.52993,-0.75072 0.52993,-1.2806 0,-0.48576 -0.17665,-0.8832 -0.52993,-1.2365 -0.35327,-0.35328 -0.79488,-0.52992 -1.2806,-0.52992 -0.52992,0 -0.92735,0.17664 -1.2806,0.52992 -0.35328,0.35328 -0.52991,0.79488 -0.52991,1.2806 0,0.52992 0.17663,0.92736 0.52991,1.2806 z"
         stroke-miterlimit="2" />
      <path
         style="fill:#c64b20;stroke-width:0;stroke-miterlimit:2"
         id="path294490"
         d="m 617.15,427.33 c -1.6781,-1.6781 -3.9744,-2.5171 -6.8448,-2.5171 -2.1638,0 -4.0186,0.48576 -5.6083,1.369 -1.5898,0.92736 -2.7379,2.208 -3.5328,3.7978 v -4.99 h -2.1197 v 23.052 h 2.208 v -12.276 c 0,-2.7379 0.75072,-4.9018 2.3405,-6.5357 1.5456,-1.5898 3.6653,-2.4288 6.4032,-2.4288 2.3405,0 4.151,0.70656 5.4758,2.0314 1.3248,1.369 1.9872,3.3562 1.9872,5.9174 v 13.292 h 2.208 v -13.469 c 0,-3.1354 -0.83904,-5.5642 -2.5171,-7.2422 z"
         stroke-miterlimit="2" />
      <path
         style="fill:#c64b20;stroke-width:0;stroke-miterlimit:2"
         id="path294492"
         d="m 650.88,424.99 h -2.1197 v 5.2109 c -0.92737,-1.6781 -2.2522,-3.0029 -3.9302,-3.9744 -1.7222,-0.92736 -3.6211,-1.4131 -5.7408,-1.4131 -2.1638,0 -4.1069,0.48576 -5.8733,1.4131 -1.7664,0.97152 -3.1354,2.2963 -4.1069,3.9744 -1.0157,1.7222 -1.5014,3.6653 -1.5014,5.785 0,2.1638 0.48576,4.1069 1.5014,5.785 0.97152,1.7222 2.3405,3.047 4.1069,4.0186 1.7664,0.97152 3.7094,1.4131 5.8733,1.4131 2.0755,0 3.9744,-0.4416 5.6525,-1.369 1.6781,-0.8832 2.9587,-2.208 3.9302,-3.8861 v 3.8861 c 0,3.0912 -0.75072,5.3434 -2.208,6.8006 -1.5014,1.4573 -3.7536,2.1638 -6.8006,2.1638 -1.8547,0 -3.577,-0.26496 -5.1667,-0.8832 -1.6339,-0.57408 -3.0029,-1.4131 -4.151,-2.473 l -1.1923,1.6781 c 1.1482,1.1482 2.6496,2.0755 4.5485,2.6938 1.8547,0.6624 3.8861,0.97152 6.0058,0.97152 3.7094,0 6.5357,-0.8832 8.3904,-2.7379 1.8547,-1.8106 2.7821,-4.6368 2.7821,-8.4787 z m -6.7565,19.077 c -1.4573,0.79488 -3.0912,1.1482 -4.8576,1.1482 -1.8106,0 -3.4445,-0.35328 -4.8576,-1.1482 -1.4131,-0.79488 -2.5613,-1.8547 -3.3562,-3.2678 -0.79487,-1.4131 -1.1923,-3.0029 -1.1923,-4.8134 0,-1.7664 0.39745,-3.3562 1.1923,-4.7693 0.79489,-1.369 1.943,-2.4288 3.3562,-3.2237 1.4131,-0.79488 3.047,-1.1923 4.8576,-1.1923 1.7664,0 3.4003,0.39744 4.8576,1.1923 1.4131,0.79488 2.5613,1.8547 3.3562,3.2237 0.79489,1.4131 1.2365,3.0029 1.2365,4.7693 0,1.8106 -0.4416,3.4003 -1.2365,4.8134 -0.79487,1.4131 -1.943,2.473 -3.3562,3.2678 z"
         stroke-miterlimit="2" />
      <path
         style="fill:#f0272e;stroke-width:0;stroke-miterlimit:2"
         id="path294495"
         d="m 405.21,351.24 c 0,-7.344 -1.872,-14.256 -5.328,-20.304 -3.456,-6.048 -8.208,-10.944 -14.256,-14.4 -6.048,-3.456 -12.672,-5.328 -20.016,-5.328 -7.488,0 -14.256,1.872 -20.304,5.328 -6.048,3.456 -10.8,8.352 -14.256,14.4 -3.456,6.048 -5.184,12.816 -5.184,20.304 0,7.488 1.584,14.4 4.752,20.448 3.168,6.048 7.632,10.8 13.248,14.256 5.76,3.6 11.952,5.328 18.864,5.328 h 35.568 c 1.872,0 3.456,-0.72 4.896,-2.016 1.296,-1.296 2.016,-2.88 2.016,-4.896 v -1.008 z m -61.92,13.824 c -2.304,-4.032 -3.312,-8.64 -3.312,-13.824 0,-5.04 1.008,-9.648 3.312,-13.824 2.304,-4.032 5.328,-7.344 9.216,-9.648 3.888,-2.304 8.208,-3.6 13.104,-3.6 4.752,0 9.072,1.296 12.96,3.6 3.888,2.304 6.912,5.616 9.216,9.648 2.16,4.176 3.312,8.784 3.312,13.824 0,5.184 -1.152,9.792 -3.312,13.824 -2.304,4.032 -5.328,7.344 -9.216,9.648 -3.888,2.304 -8.208,3.456 -12.96,3.456 -4.896,0 -9.216,-1.152 -13.104,-3.456 -3.888,-2.304 -6.912,-5.616 -9.216,-9.648 z"
         stroke-miterlimit="2" />
      <path
         style="fill:#f0272e;stroke-width:0;stroke-miterlimit:2"
         id="path294497"
         d="m 485.89,315.24 c -0.72,-1.008 -1.728,-1.872 -2.88,-2.448 -1.008,-0.432 -2.16,-0.72 -3.312,-0.72 -1.296,0 -2.448,0.432 -3.6,1.008 -1.152,0.576 -1.872,1.44 -2.448,2.592 l -24.768,54 -25.056,-54 c -0.576,-1.152 -1.44,-2.016 -2.448,-2.592 -1.152,-0.576 -2.16,-1.008 -3.312,-1.008 -1.152,0 -2.16,0.288 -3.024,0.72 -2.736,1.44 -4.032,3.312 -4.032,5.904 0,1.008 0.144,1.872 0.576,2.592 l 30.528,64.368 c 0.864,1.728 1.728,3.024 2.88,3.744 1.008,0.72 2.304,1.008 4.032,1.008 2.88,0 5.184,-1.584 6.624,-4.752 l 30.528,-64.368 c 0.432,-0.864 0.72,-1.872 0.72,-2.736 0,-1.152 -0.432,-2.304 -1.008,-3.312 z"
         stroke-miterlimit="2" />
      <path
         style="fill:#f0272e;stroke-width:0;stroke-miterlimit:2"
         id="path294499"
         d="m 564.33,315.24 c -0.72,-1.008 -1.728,-1.872 -2.88,-2.448 -1.008,-0.432 -2.16,-0.72 -3.312,-0.72 -1.296,0 -2.448,0.432 -3.6,1.008 -1.152,0.576 -1.872,1.44 -2.448,2.592 l -24.768,54 -25.056,-54 c -0.576,-1.152 -1.44,-2.016 -2.448,-2.592 -1.152,-0.576 -2.16,-1.008 -3.312,-1.008 -1.152,0 -2.16,0.288 -3.024,0.72 -2.736,1.44 -4.032,3.312 -4.032,5.904 0,1.008 0.144,1.872 0.576,2.592 l 30.528,64.368 c 0.86398,1.728 1.728,3.024 2.88,3.744 1.008,0.72 2.304,1.008 4.032,1.008 2.88,0 5.184,-1.584 6.624,-4.752 l 30.528,-64.368 c 0.432,-0.864 0.72,-1.872 0.72,-2.736 0,-1.152 -0.432,-2.304 -1.008,-3.312 z"
         stroke-miterlimit="2" />
      <path
         style="fill:#f0272e;stroke-width:0;stroke-miterlimit:2"
         id="path294501"
         d="m 582.71,313.8 c -1.44,1.44 -2.016,3.168 -2.016,5.328 v 64.08 c 0,2.16 0.576,3.888 2.016,5.328 1.44,1.44 3.168,2.016 5.328,2.016 2.16,0 3.888,-0.576 5.328,-2.016 1.296,-1.44 2.016,-3.168 2.016,-5.328 v -64.08 c 0,-2.16 -0.72,-3.888 -2.016,-5.328 -1.44,-1.296 -3.168,-2.016 -5.328,-2.016 -2.16,0 -3.888,0.72 -5.328,2.016 z"
         stroke-miterlimit="2" />
      <path
         style="fill:#f0272e;stroke-width:0.60544997"
         id="icon"
         d="m 657.5,313.06 c -2.8957,10e-4 -3.5366,0.01 -3.6437,0.0478 -0.0717,0.0256 -0.17573,0.0892 -0.23161,0.14173 -0.0555,0.0525 -0.1222,0.14408 -0.14745,0.20366 -0.039,0.0909 -0.0465,1.3789 -0.0465,8.035 0,5.5188 0.0108,7.9551 0.0357,8.0211 0.0199,0.0522 0.0768,0.13836 0.12624,0.19188 0.0498,0.0532 0.15115,0.12489 0.22521,0.15889 l 0.13465,0.0626 3.5713,6.7e-4 3.5717,6.7e-4 0.14812,-0.0784 c 0.0818,-0.0431 0.1939,-0.14273 0.24945,-0.22151 l 0.10099,-0.1434 0.009,-7.9 c 0.007,-6.1139 3.3e-4,-7.9333 -0.0313,-8.0483 -0.0242,-0.0885 -0.0899,-0.19828 -0.16158,-0.26998 -0.0667,-0.0667 -0.18313,-0.1397 -0.25887,-0.16226 -0.10504,-0.0316 -0.97085,-0.0411 -3.6518,-0.0401 z m 0.0569,2.3298 1.2819,0.008 0.13634,0.0902 c 0.0751,0.0498 0.17235,0.14812 0.21645,0.21882 l 0.0798,0.12859 0.0101,5.5881 c 0.007,3.9642 -10e-4,5.6248 -0.027,5.715 -0.0202,0.0697 -0.0821,0.17841 -0.13768,0.2417 -0.0555,0.0633 -0.16495,0.1397 -0.24305,0.16933 -0.12354,0.0471 -0.31037,0.0528 -1.4236,0.0444 l -1.2896,-0.009 -0.13381,-0.0932 c -0.0737,-0.0512 -0.17101,-0.1572 -0.21578,-0.23564 l -0.0823,-0.14289 v -5.5881 c 0,-3.0735 0.0114,-5.6295 0.0256,-5.68 0.0141,-0.0505 0.0747,-0.14778 0.13465,-0.21579 0.0596,-0.068 0.16933,-0.15148 0.24339,-0.18582 l 0.13502,-0.0611 z m 24.991,6.5111 c -0.064,-0.01 -0.16663,-0.005 -0.22824,0.0101 -0.0613,0.0152 -0.1599,0.0633 -0.21915,0.10705 -0.0592,0.0438 -2.5735,2.5675 -5.5874,5.6083 -3.6026,3.635 -5.4966,5.5689 -5.5288,5.646 -0.0269,0.0643 -0.0488,0.19693 -0.0488,0.29489 3.4e-4,0.12085 0.0229,0.21477 0.0707,0.29287 0.0384,0.0636 1.186,1.2415 2.5496,2.6177 1.4421,1.4549 2.5288,2.5261 2.5975,2.5591 0.065,0.0313 0.19457,0.0569 0.28816,0.0576 0.12287,3.4e-4 0.20803,-0.0226 0.30566,-0.0825 0.0744,-0.0455 2.5955,-2.5645 5.6029,-5.5976 3.1775,-3.2051 5.4992,-5.5726 5.5433,-5.6524 0.0495,-0.0896 0.0757,-0.19458 0.0757,-0.30163 0,-0.0902 -0.0222,-0.21712 -0.0492,-0.28142 -0.0317,-0.0764 -0.9261,-1.0022 -2.5436,-2.6331 -1.3718,-1.3836 -2.5433,-2.5409 -2.6032,-2.5715 -0.0596,-0.031 -0.16092,-0.064 -0.22521,-0.0734 z m -0.0175,3.2949 c 0.0727,0.0101 0.17977,0.0407 0.23801,0.0683 0.0579,0.0276 0.49384,0.44032 0.96885,0.91769 0.55444,0.55712 0.88166,0.91157 0.91496,0.9907 0.0283,0.068 0.0515,0.1976 0.0515,0.28782 0,0.10705 -0.0263,0.21208 -0.0757,0.30163 -0.0434,0.0791 -1.7125,1.7885 -3.9244,4.0197 -2.1167,2.135 -3.8989,3.9093 -3.9605,3.9427 -0.0616,0.0333 -0.16327,0.0687 -0.22588,0.0788 -0.0626,0.0104 -0.18145,6.7e-4 -0.26426,-0.0212 -0.1323,-0.035 -0.25449,-0.14374 -1.0348,-0.92035 -0.55544,-0.55342 -0.90927,-0.93179 -0.95099,-1.018 -0.0374,-0.0767 -0.0663,-0.20636 -0.0663,-0.29556 0,-0.0872 0.0218,-0.21074 0.0481,-0.27436 0.0313,-0.0744 1.4139,-1.4926 3.8965,-3.9962 2.1167,-2.1342 3.8841,-3.9097 3.9275,-3.945 0.0438,-0.0354 0.13465,-0.0845 0.20198,-0.10941 0.0697,-0.0259 0.18043,-0.0377 0.2555,-0.0273 z m -51.007,-3.2737 c -0.1397,-0.008 -0.22891,0.006 -0.32687,0.0535 -0.0906,0.0438 -0.9473,0.88602 -2.613,2.5695 -1.363,1.3775 -2.5062,2.5567 -2.5399,2.6207 -0.038,0.0717 -0.0616,0.18683 -0.0616,0.30129 0,0.1094 0.0236,0.22925 0.0572,0.29287 0.0316,0.0592 2.5419,2.6143 5.579,5.6773 4.2685,4.3059 5.5521,5.582 5.6561,5.6235 0.0737,0.0296 0.18986,0.0539 0.25753,0.0539 0.068,0 0.18515,-0.0303 0.26022,-0.067 0.0922,-0.0451 0.94729,-0.88499 2.6217,-2.5752 1.9652,-1.9841 2.4988,-2.5409 2.554,-2.6652 0.0528,-0.11985 0.0646,-0.19693 0.0498,-0.32317 -0.0111,-0.0916 -0.0468,-0.20871 -0.0798,-0.26089 -0.0333,-0.0522 -2.5214,-2.5766 -5.5296,-5.61 -3.0078,-3.0334 -5.5194,-5.5524 -5.581,-5.5976 -0.0801,-0.0589 -0.16629,-0.0855 -0.30398,-0.0936 z m -0.0377,3.2902 c 0.0986,-3.4e-4 0.20467,0.0269 0.29186,0.0751 0.0818,0.0451 1.6983,1.6502 3.9861,3.9578 2.1167,2.1352 3.8767,3.9342 3.9107,3.9975 0.0343,0.0633 0.0703,0.17572 0.0804,0.25012 0.0115,0.0872 -0.003,0.19188 -0.0417,0.29489 -0.0491,0.13095 -0.21376,0.31509 -0.92168,1.0304 -0.55915,0.56453 -0.90958,0.89274 -0.99676,0.93312 -0.0741,0.0347 -0.19121,0.0633 -0.26022,0.0636 -0.069,3.4e-4 -0.18683,-0.0239 -0.2619,-0.0539 -0.10537,-0.0421 -1.0069,-0.93282 -4.0241,-3.9756 -2.1386,-2.1564 -3.9134,-3.9689 -3.9444,-4.0271 -0.033,-0.0619 -0.0566,-0.1828 -0.0566,-0.29119 0,-0.11277 0.0239,-0.23127 0.0609,-0.30297 0.0337,-0.065 0.442,-0.50192 0.90721,-0.97151 0.54467,-0.54973 0.89408,-0.87628 0.98096,-0.91666 0.0741,-0.0347 0.20433,-0.0633 0.28916,-0.0636 z m 26.271,8.6011 c -0.57396,-0.007 -1.2253,3.4e-4 -1.4475,0.0158 -0.22218,0.0155 -0.62344,0.0532 -0.89208,0.0838 -0.2683,0.0306 -0.75307,0.10032 -1.0772,0.15485 -0.32384,0.0549 -0.89613,0.17539 -1.2714,0.26796 -0.37501,0.0926 -0.94324,0.25281 -1.2624,0.35616 -0.31879,0.10301 -0.82978,0.2858 -1.1355,0.40598 -0.30533,0.11985 -0.8658,0.36929 -1.2455,0.5541 -0.37939,0.18448 -0.87931,0.44301 -1.1109,0.57463 -0.23127,0.13129 -0.66316,0.39723 -0.9594,0.59079 -0.29624,0.19391 -0.64463,0.42955 -0.77426,0.52414 -0.1296,0.0946 -0.41742,0.31475 -0.6396,0.4898 -0.22218,0.17471 -0.46456,0.37097 -0.53861,0.4356 -0.0741,0.0646 -0.34708,0.31105 -0.60661,0.54737 -0.25955,0.23665 -0.68604,0.66218 -0.94796,0.94596 -0.2619,0.28344 -0.60123,0.66721 -0.7544,0.85236 -0.15282,0.18515 -0.42516,0.53356 -0.60459,0.77425 -0.17943,0.2407 -0.47061,0.6571 -0.64632,0.92574 -0.17606,0.2683 -0.43763,0.69246 -0.58137,0.94257 -0.14408,0.25012 -0.40025,0.73484 -0.56958,1.0776 -0.16933,0.3427 -0.38915,0.82003 -0.48845,1.0604 -0.0993,0.24035 -0.26258,0.66315 -0.36256,0.93918 -0.1,0.2757 -0.26391,0.78909 -0.36457,1.1402 -0.10065,0.35111 -0.23733,0.89008 -0.30331,1.1974 -0.0663,0.30768 -0.15687,0.79447 -0.20131,1.0816 -0.0444,0.28748 -0.10537,0.75706 -0.13532,1.0442 -0.0296,0.28681 -0.0643,0.83516 -0.0768,1.2183 -0.0121,0.38309 -0.0121,1.0194 0,1.4139 0.0125,0.39454 0.0475,0.95977 0.0781,1.256 0.0306,0.29623 0.10772,0.84896 0.17101,1.228 0.0636,0.37938 0.19154,0.99712 0.28446,1.3724 0.0932,0.37535 0.25382,0.94391 0.3575,1.263 0.10334,0.31879 0.28311,0.82239 0.39958,1.1186 0.11614,0.29624 0.30465,0.74295 0.41877,0.99307 0.11378,0.24978 0.29926,0.62846 0.4117,0.84158 0.11277,0.21275 0.2959,0.54602 0.40733,0.74059 0.11143,0.19424 0.36053,0.59483 0.5541,0.88972 0.19322,0.29488 0.50024,0.73417 0.68235,0.97623 0.18212,0.24204 0.43223,0.56117 0.55544,0.70929 0.12354,0.14812 0.37467,0.43796 0.55814,0.64396 0.1838,0.20602 0.56554,0.59988 0.84866,0.87525 0.28311,0.27536 0.73351,0.68404 1.0015,0.90824 0.26762,0.22419 0.6534,0.53288 0.85708,0.68574 0.20366,0.15283 0.60526,0.43324 0.89207,0.62313 0.28715,0.1902 0.71129,0.45547 0.94258,0.59012 0.2316,0.13432 0.73151,0.3979 1.1109,0.58574 0.37973,0.18784 0.96649,0.4521 1.3041,0.58675 0.33798,0.135 0.86041,0.32586 1.1614,0.4245 0.30094,0.0983 0.85805,0.25617 1.2375,0.35043 0.37973,0.0943 0.89644,0.20905 1.1486,0.25483 0.25214,0.0461 0.69888,0.11412 0.99307,0.15148 0.29388,0.0371 0.75439,0.0845 1.0227,0.10504 0.26864,0.0209 0.88972,0.0374 1.3802,0.0371 0.49081,-6e-4 1.0967,-0.0172 1.3465,-0.0374 0.25012,-0.0199 0.70456,-0.0673 1.0099,-0.1057 0.30567,-0.038 0.79043,-0.11311 1.0772,-0.16698 0.28715,-0.0535 0.79109,-0.16562 1.1203,-0.2491 0.32956,-0.0835 0.85975,-0.23767 1.1782,-0.34236 0.31879,-0.10469 0.84497,-0.29556 1.1688,-0.42416 0.32418,-0.12859 0.89207,-0.38309 1.2624,-0.56521 0.3703,-0.18211 0.88536,-0.45546 1.1446,-0.60696 0.25921,-0.15183 0.68338,-0.41642 0.94257,-0.58777 0.25921,-0.17168 0.66788,-0.4595 0.90824,-0.64027 0.24036,-0.18043 0.60964,-0.47296 0.82136,-0.65037 0.21141,-0.17708 0.58204,-0.51203 0.82342,-0.74399 0.24137,-0.23194 0.60157,-0.59281 0.80053,-0.80186 0.19896,-0.20905 0.51674,-0.56521 0.70657,-0.79175 0.1902,-0.22622 0.48105,-0.59315 0.64699,-0.81531 0.16596,-0.22218 0.41843,-0.57834 0.56116,-0.79145 0.14307,-0.21308 0.39218,-0.60697 0.5541,-0.87524 0.16192,-0.2683 0.47162,-0.84395 0.68774,-1.2788 0.21612,-0.43526 0.48947,-1.0334 0.60697,-1.3297 0.11782,-0.29624 0.28075,-0.73557 0.36222,-0.97624 0.0818,-0.24069 0.20871,-0.64935 0.28243,-0.90788 0.0737,-0.25887 0.17842,-0.66013 0.23262,-0.89208 0.0546,-0.23194 0.137,-0.62949 0.18379,-0.88335 0.0468,-0.25416 0.1148,-0.69349 0.15149,-0.97624 0.0364,-0.2831 0.0848,-0.7194 0.10772,-0.96915 0.0226,-0.25012 0.0418,-0.91666 0.0421,-1.4812 6e-4,-0.56487 -0.0182,-1.2466 -0.0417,-1.5148 -0.0236,-0.26864 -0.065,-0.66249 -0.0919,-0.87525 -0.0269,-0.21309 -0.0801,-0.57665 -0.11815,-0.80791 -0.038,-0.23161 -0.12254,-0.66316 -0.18751,-0.95941 -0.065,-0.29623 -0.19929,-0.819 -0.29792,-1.1617 -0.0986,-0.34236 -0.26358,-0.85406 -0.36592,-1.1361 -0.10267,-0.28243 -0.26426,-0.69888 -0.35953,-0.92574 -0.0953,-0.22655 -0.26896,-0.61236 -0.38577,-0.85708 -0.11681,-0.24473 -0.31442,-0.63119 -0.43931,-0.85841 -0.12455,-0.22723 -0.31778,-0.56488 -0.42921,-0.75004 -0.11142,-0.18515 -0.33663,-0.53559 -0.49989,-0.77898 -0.16361,-0.24305 -0.45581,-0.65002 -0.64905,-0.90455 -0.19357,-0.25416 -0.51471,-0.65377 -0.71401,-0.88735 -0.19895,-0.23396 -0.63525,-0.69815 -0.96952,-1.0321 -0.33394,-0.33394 -0.76614,-0.74465 -0.96073,-0.9123 -0.19424,-0.16798 -0.57295,-0.47634 -0.84122,-0.68537 -0.2683,-0.20939 -0.7682,-0.56589 -1.1109,-0.79279 -0.34269,-0.22688 -0.82742,-0.52885 -1.0776,-0.67126 -0.25012,-0.1424 -0.72715,-0.39218 -1.0604,-0.55478 -0.33327,-0.16292 -0.81028,-0.38005 -1.0604,-0.48239 -0.24978,-0.10268 -0.65037,-0.25719 -0.89007,-0.34337 -0.23969,-0.0862 -0.69277,-0.2316 -1.0072,-0.32283 -0.31475,-0.0912 -0.80792,-0.21814 -1.096,-0.28243 -0.2885,-0.064 -0.74968,-0.15519 -1.025,-0.20232 -0.27502,-0.0468 -0.79005,-0.11647 -1.1446,-0.15418 -0.45816,-0.0491 -0.94493,-0.0727 -1.6875,-0.0815 z m -0.0505,2.3217 c 0.6433,0.007 1.2092,0.0316 1.5148,0.0656 0.26863,0.03 0.71534,0.0926 0.99307,0.13903 0.27772,0.0465 0.67157,0.1222 0.87524,0.16798 0.20366,0.0454 0.59012,0.14509 0.85841,0.22049 0.26864,0.0757 0.71807,0.21915 0.99913,0.31913 0.28108,0.0997 0.67496,0.25113 0.87524,0.33596 0.2003,0.0852 0.59146,0.26594 0.86919,0.40127 0.27772,0.13566 0.6921,0.3548 0.92102,0.48677 0.22891,0.13196 0.59247,0.35481 0.80792,0.49552 0.21544,0.14038 0.58877,0.40194 0.82947,0.58136 0.24069,0.17943 0.57396,0.44065 0.74059,0.5807 0.16663,0.14004 0.47735,0.41641 0.6901,0.61435 0.21275,0.1976 0.56689,0.55174 0.78636,0.78673 0.21949,0.23497 0.57598,0.64668 0.79176,0.91532 0.21577,0.2683 0.51504,0.66249 0.66485,0.87525 0.15013,0.21275 0.35346,0.51572 0.45209,0.67327 0.0983,0.15754 0.27604,0.45277 0.39454,0.65643 0.11815,0.20366 0.33394,0.61266 0.47869,0.90891 0.14509,0.29623 0.33899,0.72037 0.43089,0.94257 0.0919,0.22218 0.23564,0.59314 0.31879,0.82475 0.0835,0.23126 0.22116,0.66315 0.30566,0.9594 0.0848,0.29624 0.19929,0.74296 0.25517,0.99307 0.0555,0.24978 0.13936,0.68907 0.18582,0.97623 0.0464,0.28681 0.10705,0.75034 0.13465,1.0298 0.0276,0.27941 0.0602,0.81736 0.0724,1.195 0.0134,0.41507 0.006,0.94693 -0.0175,1.3435 -0.0219,0.36087 -0.0693,0.89105 -0.1057,1.1782 -0.0363,0.28681 -0.10402,0.72981 -0.15048,0.98398 -0.0461,0.25416 -0.14576,0.70862 -0.22083,1.0099 -0.0751,0.30128 -0.24002,0.85805 -0.36625,1.2378 -0.12624,0.37938 -0.32351,0.90957 -0.4383,1.1782 -0.11479,0.2683 -0.33697,0.74126 -0.49317,1.051 -0.15653,0.3097 -0.42887,0.80187 -0.60526,1.0941 -0.1764,0.2922 -0.44369,0.70523 -0.59383,0.91835 -0.15047,0.21275 -0.37904,0.52347 -0.50797,0.6901 -0.12927,0.16663 -0.36357,0.45445 -0.52111,0.6396 -0.15755,0.18515 -0.56016,0.60963 -0.8951,0.94324 -0.33462,0.33394 -0.76009,0.7332 -0.94524,0.88735 -0.18515,0.15418 -0.54097,0.43459 -0.79109,0.62314 -0.25012,0.18818 -0.59079,0.43224 -0.75742,0.54198 -0.16663,0.1094 -0.51505,0.3262 -0.77426,0.48105 -0.2592,0.15518 -0.74398,0.41574 -1.0772,0.57901 -0.33327,0.16292 -0.83317,0.38746 -1.1109,0.49855 -0.27772,0.11075 -0.73956,0.27772 -1.0267,0.37097 -0.28681,0.0932 -0.66551,0.20837 -0.84158,0.25584 -0.17572,0.0475 -0.53255,0.13129 -0.79278,0.18615 -0.25988,0.0552 -0.6706,0.13096 -0.9123,0.16866 -0.24171,0.0374 -0.68035,0.0902 -0.97454,0.11748 -0.29456,0.0269 -0.77765,0.0589 -1.0738,0.0707 -0.29623,0.0121 -0.84158,0.005 -1.2119,-0.0158 -0.3703,-0.0209 -0.80962,-0.0532 -0.97624,-0.072 -0.16663,-0.0185 -0.5073,-0.0653 -0.75742,-0.10334 -0.24978,-0.038 -0.62852,-0.10604 -0.84158,-0.15081 -0.21275,-0.0451 -0.59147,-0.13533 -0.84159,-0.20097 -0.24978,-0.0653 -0.67968,-0.19424 -0.95468,-0.28614 -0.27502,-0.0919 -0.67665,-0.23665 -0.89207,-0.32148 -0.21545,-0.0852 -0.68707,-0.29759 -1.0483,-0.4723 -0.36087,-0.17472 -0.8305,-0.4181 -1.0436,-0.54131 -0.21275,-0.12287 -0.56116,-0.33629 -0.77425,-0.47398 -0.21275,-0.13734 -0.58406,-0.39655 -0.82475,-0.57597 -0.2407,-0.17943 -0.58103,-0.44638 -0.7564,-0.59315 -0.17539,-0.14711 -0.51639,-0.45041 -0.75742,-0.67394 -0.24137,-0.22386 -0.62041,-0.60793 -0.84261,-0.85405 -0.22218,-0.24574 -0.54501,-0.62313 -0.71771,-0.83855 -0.17269,-0.21545 -0.41742,-0.53592 -0.544,-0.71166 -0.12658,-0.17606 -0.35279,-0.51202 -0.50293,-0.74664 -0.1498,-0.23463 -0.39857,-0.65377 -0.55275,-0.93077 -0.15418,-0.27738 -0.38005,-0.72176 -0.50225,-0.98737 -0.12186,-0.2656 -0.29725,-0.67224 -0.38948,-0.90352 -0.0922,-0.23161 -0.24305,-0.64802 -0.33495,-0.92574 -0.0919,-0.27772 -0.22891,-0.74732 -0.30432,-1.0436 -0.0754,-0.29624 -0.16865,-0.69785 -0.20703,-0.89208 -0.0387,-0.19458 -0.0993,-0.54299 -0.13499,-0.77426 -0.0357,-0.2316 -0.0906,-0.68604 -0.1222,-1.0099 -0.0374,-0.38511 -0.0572,-0.89814 -0.0576,-1.4812 0,-0.49081 0.0182,-1.1042 0.0407,-1.3634 0.0222,-0.25921 0.0784,-0.73654 0.12456,-1.0604 0.0461,-0.32418 0.13599,-0.83147 0.19962,-1.1281 0.0636,-0.29623 0.18313,-0.77359 0.2656,-1.0604 0.0825,-0.28681 0.21376,-0.70324 0.29153,-0.92538 0.0781,-0.22217 0.23901,-0.6376 0.35784,-0.92271 0.11849,-0.28547 0.34269,-0.77056 0.49788,-1.0776 0.15519,-0.30734 0.42752,-0.8012 0.60492,-1.0971 0.17741,-0.2959 0.48812,-0.7699 0.69046,-1.053 0.20232,-0.28311 0.53154,-0.71468 0.73151,-0.9594 0.19996,-0.2444 0.66655,-0.74937 1.0368,-1.1217 0.37029,-0.37231 0.86277,-0.83353 1.094,-1.0247 0.23161,-0.19121 0.58743,-0.47162 0.79109,-0.62313 0.20366,-0.15149 0.56722,-0.40396 0.80792,-0.56083 0.24069,-0.15721 0.6019,-0.38006 0.80319,-0.49553 0.20097,-0.11546 0.63252,-0.34168 0.95941,-0.50259 0.32653,-0.16091 0.8288,-0.38544 1.1156,-0.49856 0.28715,-0.11344 0.73387,-0.27502 0.99306,-0.35952 0.25921,-0.0845 0.67593,-0.20703 0.92574,-0.27166 0.25012,-0.065 0.68168,-0.16361 0.95941,-0.21915 0.27772,-0.0552 0.73992,-0.13163 1.0267,-0.16899 0.28715,-0.0377 0.69615,-0.0825 0.9089,-0.0996 0.21309,-0.0172 0.84934,-0.0259 1.4139,-0.0199 z m 0,5.2868 c -0.43493,-0.007 -0.94996,3.4e-4 -1.1446,0.0175 -0.19424,0.0172 -0.5881,0.0704 -0.87524,0.11816 -0.28681,0.0481 -0.71874,0.13869 -0.95941,0.20097 -0.24069,0.0626 -0.58911,0.16529 -0.77425,0.22824 -0.18515,0.0629 -0.50529,0.1838 -0.71165,0.26863 -0.20636,0.0845 -0.52852,0.23093 -0.71602,0.32485 -0.1875,0.0943 -0.5036,0.26796 -0.7022,0.38612 -0.19861,0.11816 -0.53054,0.3336 -0.73757,0.47903 -0.20703,0.14542 -0.53995,0.40059 -0.74022,0.56722 -0.19996,0.16664 -0.53054,0.46994 -0.73454,0.67393 -0.20366,0.20401 -0.48543,0.50697 -0.62616,0.67327 -0.14038,0.16629 -0.36154,0.44604 -0.49183,0.6221 -0.12994,0.17572 -0.31946,0.4484 -0.42079,0.60594 -0.10133,0.15721 -0.28479,0.46792 -0.40766,0.6901 -0.12253,0.22218 -0.3124,0.6083 -0.4218,0.85841 -0.10941,0.24978 -0.26864,0.65474 -0.35347,0.89947 -0.0848,0.24507 -0.20737,0.66146 -0.272,0.92574 -0.0646,0.26459 -0.14778,0.66248 -0.18414,0.88469 -0.0367,0.22217 -0.0852,0.57799 -0.10806,0.79108 -0.0226,0.21275 -0.0404,0.72037 -0.0394,1.1277 0.001,0.4659 0.0225,0.91533 0.0576,1.2119 0.0306,0.25921 0.10099,0.69851 0.1562,0.97624 0.0555,0.27772 0.16024,0.71298 0.23295,0.96679 0.0727,0.25415 0.21814,0.67829 0.32283,0.94257 0.10469,0.26459 0.29354,0.6867 0.41978,0.93888 0.12623,0.25213 0.31542,0.60055 0.42079,0.77425 0.10503,0.1737 0.27435,0.43728 0.37602,0.5854 0.10166,0.14812 0.30835,0.42787 0.45883,0.62144 0.15081,0.19357 0.48609,0.57059 0.74531,0.83753 0.25921,0.26729 0.66079,0.64432 0.89208,0.83789 0.2316,0.19356 0.61871,0.48542 0.86077,0.64904 0.24171,0.16327 0.63288,0.40531 0.86919,0.53726 0.23599,0.1323 0.54569,0.29423 0.68774,0.35953 0.14206,0.0656 0.46522,0.20064 0.71801,0.2996 0.25247,0.0993 0.64632,0.23497 0.87524,0.30163 0.22857,0.0663 0.63555,0.16495 0.90389,0.21914 0.26863,0.0539 0.68507,0.12388 0.92574,0.15519 0.29994,0.0387 0.69718,0.0576 1.2624,0.0592 0.46624,0.001 0.98568,-0.0158 1.195,-0.0401 0.20367,-0.0232 0.54468,-0.073 0.75743,-0.11007 0.21309,-0.0371 0.5918,-0.11917 0.84158,-0.18246 0.25012,-0.063 0.62949,-0.17505 0.84358,-0.2491 0.2141,-0.0737 0.55409,-0.20468 0.75573,-0.29086 0.20164,-0.0862 0.48273,-0.21477 0.62477,-0.28647 0.14239,-0.0714 0.40799,-0.21612 0.59113,-0.32115 0.18279,-0.10537 0.49081,-0.29927 0.68507,-0.43122 0.1939,-0.13163 0.47431,-0.33495 0.62277,-0.45177 0.14845,-0.11681 0.44469,-0.3703 0.65843,-0.56318 0.21343,-0.19289 0.53828,-0.51842 0.7214,-0.7231 0.18346,-0.20501 0.45344,-0.52649 0.59955,-0.71431 0.14643,-0.18818 0.37635,-0.50933 0.51101,-0.71401 0.13431,-0.20468 0.3447,-0.55376 0.4669,-0.77595 0.1222,-0.22218 0.31374,-0.61236 0.4255,-0.86683 0.11143,-0.25483 0.26426,-0.64094 0.33967,-0.85842 0.0751,-0.21746 0.18784,-0.59247 0.25079,-0.83316 0.0626,-0.2407 0.14442,-0.59685 0.18111,-0.79109 0.0367,-0.19458 0.0933,-0.57329 0.12556,-0.84158 0.0411,-0.33899 0.0586,-0.73018 0.0579,-1.2792 -3.3e-4,-0.43526 -0.0188,-0.95032 -0.0414,-1.1446 -0.0222,-0.19457 -0.071,-0.53524 -0.10806,-0.75742 -0.0371,-0.22218 -0.11883,-0.6086 -0.18144,-0.85841 -0.063,-0.25012 -0.18448,-0.65813 -0.26999,-0.90722 -0.0855,-0.24911 -0.21679,-0.59752 -0.29219,-0.77425 -0.0751,-0.17674 -0.20972,-0.46758 -0.29927,-0.64633 -0.0895,-0.17875 -0.24171,-0.45883 -0.33798,-0.62277 -0.0966,-0.16394 -0.27974,-0.45378 -0.40732,-0.64432 -0.12725,-0.19054 -0.38612,-0.53895 -0.57463,-0.77426 -0.18886,-0.2353 -0.5403,-0.62579 -0.78098,-0.86749 -0.24103,-0.24204 -0.58945,-0.56554 -0.77462,-0.7194 -0.18515,-0.15351 -0.49552,-0.39285 -0.6901,-0.53121 -0.19423,-0.13869 -0.51639,-0.34909 -0.71534,-0.46725 -0.19895,-0.11849 -0.54737,-0.30836 -0.77426,-0.42213 -0.22688,-0.11412 -0.60933,-0.28614 -0.84999,-0.38275 -0.2407,-0.0966 -0.58911,-0.22218 -0.77426,-0.27907 -0.18515,-0.0569 -0.48812,-0.14172 -0.67326,-0.18784 -0.18515,-0.0465 -0.46658,-0.1084 -0.62514,-0.13768 -0.15889,-0.0296 -0.46186,-0.0764 -0.67326,-0.10436 -0.21175,-0.0279 -0.74059,-0.0566 -1.1759,-0.064 z m -0.0673,2.3208 c 0.49922,0.006 0.88941,0.029 1.1446,0.0673 0.21309,0.032 0.61538,0.1158 0.89443,0.18649 0.27874,0.0704 0.65747,0.18347 0.84159,0.25113 0.1838,0.0677 0.5615,0.23329 0.83922,0.3676 0.27772,0.13466 0.63391,0.32519 0.79108,0.42349 0.15755,0.0983 0.45277,0.30364 0.65644,0.4558 0.20366,0.15215 0.50192,0.39655 0.66285,0.54265 0.16058,0.14643 0.41642,0.40193 0.56858,0.56823 0.15181,0.1663 0.37029,0.42349 0.48576,0.57161 0.11546,0.14812 0.31003,0.42247 0.43257,0.60963 0.12219,0.18717 0.32013,0.52817 0.43998,0.75742 0.1195,0.22925 0.28748,0.59113 0.37299,0.80423 0.0855,0.21275 0.20669,0.56116 0.26964,0.77425 0.0626,0.21275 0.13701,0.49317 0.16529,0.62277 0.0279,0.12961 0.0737,0.37198 0.10132,0.53862 0.0279,0.16663 0.068,0.51505 0.0896,0.77425 0.0229,0.27369 0.0306,0.68707 0.0185,0.98635 -0.0114,0.28344 -0.0518,0.72812 -0.0899,0.98834 -0.038,0.26021 -0.12051,0.67224 -0.18313,0.91563 -0.063,0.24338 -0.16899,0.59853 -0.23564,0.78939 -0.0666,0.19087 -0.18986,0.50125 -0.27335,0.6901 -0.0835,0.18851 -0.23698,0.49451 -0.34134,0.67968 -0.10402,0.18515 -0.27974,0.47297 -0.39049,0.63961 -0.11042,0.16663 -0.31577,0.44671 -0.45614,0.62277 -0.14004,0.17572 -0.3841,0.45479 -0.54198,0.61938 -0.15788,0.16495 -0.43863,0.43021 -0.6238,0.58944 -0.18515,0.15956 -0.46522,0.38208 -0.62277,0.49519 -0.15721,0.11277 -0.44503,0.30095 -0.6396,0.41809 -0.19424,0.11682 -0.5201,0.29119 -0.72376,0.38747 -0.20366,0.0959 -0.53827,0.23631 -0.74398,0.31206 -0.20535,0.0754 -0.54636,0.18279 -0.75743,0.23867 -0.21107,0.0559 -0.55039,0.13129 -0.75403,0.16731 -0.20366,0.036 -0.58238,0.0842 -0.84158,0.10671 -0.28244,0.0249 -0.67393,0.033 -0.97727,0.0205 -0.27805,-0.0111 -0.67968,-0.0444 -0.89207,-0.0741 -0.21242,-0.0293 -0.52246,-0.0835 -0.68907,-0.12051 -0.16663,-0.0371 -0.43931,-0.10604 -0.60594,-0.15384 -0.16663,-0.0475 -0.47701,-0.15351 -0.6901,-0.23564 -0.21275,-0.0818 -0.60223,-0.25989 -0.86483,-0.39589 -0.26291,-0.13566 -0.64905,-0.36154 -0.85841,-0.50124 -0.20939,-0.14004 -0.48678,-0.33899 -0.61635,-0.44234 -0.12961,-0.10334 -0.39117,-0.33259 -0.58104,-0.50933 -0.18985,-0.17673 -0.50461,-0.51201 -0.69917,-0.74531 -0.19491,-0.23329 -0.47129,-0.59921 -0.614,-0.81361 -0.14306,-0.21443 -0.38241,-0.63222 -0.53188,-0.9284 -0.14946,-0.29624 -0.34067,-0.72812 -0.42516,-0.95941 -0.0845,-0.2316 -0.20064,-0.60257 -0.25787,-0.82475 -0.0572,-0.22217 -0.13364,-0.57833 -0.17,-0.79108 -0.0364,-0.21309 -0.0831,-0.63658 -0.10401,-0.94155 -0.0212,-0.30499 -0.0286,-0.72176 -0.0172,-0.92574 0.0118,-0.20433 0.0434,-0.55073 0.0707,-0.76989 0.0269,-0.21915 0.0875,-0.58272 0.13499,-0.80792 0.0471,-0.22521 0.15923,-0.62919 0.24911,-0.89747 0.0896,-0.26863 0.23766,-0.65474 0.32889,-0.85841 0.0912,-0.20366 0.24608,-0.51438 0.3437,-0.6901 0.098,-0.17606 0.2959,-0.49418 0.44032,-0.70693 0.14441,-0.21309 0.39015,-0.53861 0.54568,-0.72376 0.15587,-0.18514 0.45985,-0.50629 0.67563,-0.71334 0.21578,-0.20737 0.57059,-0.51101 0.78806,-0.6746 0.21747,-0.16361 0.56218,-0.39757 0.76584,-0.51976 0.20366,-0.1222 0.49148,-0.28277 0.6396,-0.35649 0.14812,-0.0737 0.44368,-0.20366 0.65644,-0.28849 0.21308,-0.0852 0.53861,-0.20131 0.72376,-0.2582 0.18514,-0.0572 0.51841,-0.14004 0.74059,-0.18448 0.22218,-0.0444 0.52514,-0.0969 0.67326,-0.11647 0.14812,-0.0195 0.3225,-0.0417 0.38713,-0.0491 0.065,-0.007 0.45883,-0.009 0.87525,-0.004 z m 31.105,4.9354 c -4.286,0.002 -7.8358,0.0155 -7.8879,0.0313 -0.0518,0.0155 -0.14846,0.0694 -0.21411,0.11951 -0.066,0.0501 -0.14845,0.15619 -0.18346,0.23564 l -0.064,0.14408 0.009,3.6353 0.009,3.6353 0.10099,0.14307 c 0.0555,0.0784 0.16158,0.17438 0.23564,0.21309 l 0.13466,0.0703 h 15.754 l 0.13466,-0.0703 c 0.0741,-0.0387 0.1801,-0.13465 0.23564,-0.21309 l 0.10099,-0.14307 0.009,-3.6246 c 0.008,-3.2465 0.004,-3.639 -0.0444,-3.7656 -0.0293,-0.0781 -0.10503,-0.18683 -0.16831,-0.24237 -0.063,-0.0552 -0.17202,-0.11648 -0.24171,-0.136 -0.0872,-0.0242 -2.5776,-0.0343 -7.9206,-0.0326 z m 0.009,2.3204 c 4.9014,-6.7e-4 5.5275,0.005 5.6382,0.0515 0.0687,0.0286 0.16091,0.0855 0.20534,0.12623 0.0444,0.0407 0.1084,0.13466 0.14274,0.20871 l 0.0623,0.13466 v 2.5584 l -0.062,0.13599 c -0.034,0.0747 -0.11008,0.17674 -0.16899,0.22656 -0.0593,0.0495 -0.16596,0.10571 -0.23732,0.12523 -0.0879,0.0236 -1.9138,0.032 -5.6507,0.0259 l -5.5214,-0.009 -0.14577,-0.10133 c -0.0855,-0.0596 -0.1774,-0.1636 -0.22183,-0.25146 l -0.0757,-0.14947 v -1.2732 c 0,-1.0732 0.008,-1.293 0.0522,-1.398 0.0286,-0.0687 0.0855,-0.16091 0.12624,-0.20535 0.0408,-0.0444 0.13465,-0.10839 0.20871,-0.14273 l 0.13466,-0.0623 z m -63.143,-1.9102 c -6.5746,-0.006 -7.9333,3.4e-4 -8.0174,0.038 -0.0555,0.0249 -0.14913,0.0963 -0.20838,0.15856 -0.0589,0.0623 -0.12321,0.15619 -0.14306,0.20837 -0.0242,0.0646 -0.0357,1.2412 -0.0357,3.706 v 3.6114 l 0.0784,0.14812 c 0.0515,0.0976 0.13431,0.18313 0.24136,0.24945 l 0.16293,0.10099 h 7.84 c 4.3153,0 7.8885,-0.0118 7.9399,-0.0263 0.0512,-0.0142 0.15249,-0.0794 0.2252,-0.14508 0.0724,-0.0653 0.15586,-0.18246 0.18515,-0.25989 0.0478,-0.12624 0.0525,-0.52077 0.0441,-3.743 l -0.0103,-3.5964 -0.0672,-0.11443 c -0.037,-0.063 -0.12556,-0.16158 -0.19659,-0.21881 l -0.12957,-0.10475 z m -0.0684,2.3134 c 3.8484,0 5.5918,0.0111 5.6571,0.0357 0.0522,0.0199 0.13835,0.0768 0.19188,0.12623 0.0532,0.0498 0.12489,0.15115 0.15889,0.22521 l 0.0626,0.13465 6.7e-4,1.2489 c 3.3e-4,0.8692 -0.0114,1.2836 -0.0387,1.3634 -0.0219,0.063 -0.0687,0.15418 -0.10402,0.20265 -0.0357,0.0481 -0.12758,0.12388 -0.20468,0.16832 l -0.14004,0.0801 -5.4821,0.009 c -3.6121,0.005 -5.5251,-0.002 -5.6083,-0.0252 -0.0693,-0.0185 -0.17774,-0.068 -0.24069,-0.11009 -0.063,-0.0417 -0.14846,-0.1434 -0.1902,-0.22587 l -0.0757,-0.14981 v -2.5859 l 0.072,-0.14913 c 0.0481,-0.099 0.12355,-0.18144 0.22555,-0.24608 l 0.15317,-0.0973 z m 51.167,15.217 c -0.0942,6.1e-4 -0.21678,0.0212 -0.27233,0.0455 -0.0555,0.0242 -1.228,1.1789 -2.6059,2.5655 -1.7347,1.7461 -2.5237,2.5628 -2.5662,2.656 -0.0337,0.0741 -0.0616,0.19963 -0.062,0.27907 -3.3e-4,0.0821 0.0303,0.20501 0.071,0.28479 0.0464,0.0916 1.3539,1.4344 3.7592,3.8615 2.0286,2.0467 4.5146,4.5506 5.5251,5.5646 1.466,1.4711 1.866,1.8545 1.9797,1.8979 0.0963,0.0371 0.18717,0.0475 0.28109,0.0323 0.0764,-0.0121 0.18078,-0.0438 0.23228,-0.0703 0.0515,-0.0269 1.2125,-1.1776 2.58,-2.5571 1.3677,-1.3798 2.5163,-2.5651 2.5527,-2.6345 0.0427,-0.0815 0.0653,-0.18784 0.0636,-0.30129 -0.002,-0.12186 -0.0269,-0.21645 -0.0828,-0.30936 -0.0441,-0.0734 -2.5399,-2.6156 -5.546,-5.649 -3.2114,-3.2408 -5.5218,-5.5467 -5.6019,-5.5911 -0.0929,-0.0515 -0.19053,-0.0754 -0.30768,-0.0744 z m 0.12052,3.2997 c 0.068,0.0118 0.16798,0.0505 0.22218,0.0855 0.0542,0.0354 1.8239,1.804 3.9329,3.9308 2.1087,2.1272 3.8625,3.911 3.8969,3.9645 0.0343,0.0535 0.0751,0.15351 0.0906,0.22184 0.0168,0.0744 0.0138,0.1929 -0.007,0.29422 l -0.0357,0.16933 -0.91193,0.91732 c -0.71099,0.71498 -0.94391,0.92913 -1.0567,0.97218 -0.10032,0.0384 -0.19222,0.0488 -0.30129,0.0337 -0.0862,-0.0118 -0.19726,-0.0478 -0.24675,-0.0801 -0.0498,-0.0323 -1.8158,-1.7993 -3.9252,-3.9268 -2.109,-2.1272 -3.8709,-3.9181 -3.915,-3.9797 -0.0492,-0.068 -0.0872,-0.1774 -0.0966,-0.27739 -0.009,-0.0909 0.004,-0.22386 0.0269,-0.29522 0.0323,-0.0986 0.24642,-0.33798 0.88566,-0.98871 0.46388,-0.4723 0.89311,-0.89474 0.95438,-0.93954 0.0609,-0.0444 0.16765,-0.0905 0.23733,-0.10234 0.0693,-0.0118 0.18178,-0.0118 0.24978,3.4e-4 z m -38.651,-2.9244 c -0.0646,0.002 -0.17067,0.0199 -0.23564,0.0404 -0.0896,0.0283 -0.68671,0.61029 -2.4921,2.4288 -1.3058,1.3149 -3.7975,3.8268 -5.5372,5.5817 -1.7397,1.7548 -3.1892,3.2394 -3.2209,3.299 -0.0327,0.0616 -0.0582,0.18515 -0.0593,0.28614 -6.7e-4,0.098 0.0192,0.22656 0.0444,0.28614 0.0266,0.0636 1.0806,1.1553 2.5409,2.6322 1.4678,1.4846 2.5473,2.5504 2.6217,2.5884 0.0751,0.0387 0.19458,0.065 0.2959,0.065 0.0932,0 0.21713,-0.0246 0.27503,-0.0546 0.0579,-0.03 2.5924,-2.5638 5.6325,-5.6305 3.499,-3.5296 5.5447,-5.6174 5.5747,-5.6887 0.0259,-0.0623 0.0465,-0.19289 0.0458,-0.29085 -10e-4,-0.10066 -0.0266,-0.22453 -0.0589,-0.28546 -0.0317,-0.0593 -1.1786,-1.2391 -2.5483,-2.6224 -1.7633,-1.7805 -2.5301,-2.5332 -2.6257,-2.5766 -0.0744,-0.0337 -0.18784,-0.0599 -0.25281,-0.0586 z m -0.0273,3.295 c 0.0717,0 0.18683,0.0233 0.25551,0.0518 0.0821,0.0337 0.42381,0.34876 0.99439,0.91733 0.47802,0.476 0.8985,0.92168 0.93416,0.9904 0.0394,0.0754 0.065,0.19255 0.065,0.29556 0,0.0939 -0.0215,0.22218 -0.0475,0.28479 -0.0303,0.0724 -1.4596,1.5388 -3.911,4.0133 -2.1248,2.1443 -3.9241,3.9366 -3.9985,3.982 -0.0976,0.0599 -0.18246,0.0828 -0.30533,0.0825 -0.0936,-6.1e-4 -0.22621,-0.0276 -0.29421,-0.0606 -0.071,-0.0343 -0.49183,-0.43224 -0.98665,-0.93312 -0.51236,-0.51842 -0.88263,-0.92035 -0.91127,-0.98938 -0.0266,-0.0636 -0.0485,-0.19558 -0.0481,-0.29354 0,-0.12522 0.0226,-0.2141 0.0757,-0.30061 0.0414,-0.0673 1.8067,-1.87 3.9224,-4.0059 2.3601,-2.382 3.9009,-3.9123 3.9861,-3.9588 0.0764,-0.0417 0.1976,-0.0757 0.26931,-0.0757 z m 19.465,5.8917 -3.5717,-6.1e-4 -0.14811,0.0784 c -0.0818,0.0431 -0.19391,0.14273 -0.24945,0.2215 l -0.10099,0.1434 v 15.979 l 0.10099,0.14273 c 0.0555,0.0788 0.16158,0.17472 0.23564,0.21343 l 0.13465,0.0704 h 7.2376 l 0.11411,-0.0673 c 0.063,-0.0371 0.16159,-0.12557 0.21882,-0.19659 l 0.10469,-0.12961 0.009,-7.9327 c 0.005,-4.3631 10e-4,-7.9823 -0.01,-8.0435 -0.0111,-0.0606 -0.0683,-0.16529 -0.12724,-0.23261 -0.0593,-0.0673 -0.16832,-0.1498 -0.24238,-0.1838 l -0.13499,-0.0613 z m 0.0565,2.3305 1.2987,0.008 0.13432,0.0929 c 0.0737,0.0512 0.17101,0.15721 0.21578,0.23564 l 0.0818,0.14273 0.009,5.504 c 0.006,3.9332 -0.002,5.5555 -0.0283,5.6841 -0.0259,0.12455 -0.0734,0.21982 -0.15418,0.30936 -0.0643,0.071 -0.18077,0.15384 -0.25853,0.18346 -0.12254,0.0468 -0.31038,0.0525 -1.4088,0.0441 l -1.2674,-0.0101 -0.1434,-0.10099 c -0.0788,-0.0555 -0.17842,-0.16764 -0.22151,-0.24945 l -0.0739,-0.14531 v -5.584 c 0,-4.9636 0.006,-5.5978 0.0522,-5.7086 0.0286,-0.0687 0.0855,-0.16091 0.12624,-0.20535 0.0407,-0.0444 0.13465,-0.10873 0.20871,-0.14341 l 0.13466,-0.0626 z" />
    </g>
  </g>
</svg>
